PathFileType	4	(X/Y/Z)	../Python\walking\Walking03\task.trc
DataRate	CameraRate	NumFrames	NumMarkers	Units	OrigDataRate	OrigDataStartFrame	OrigNumFrames
200.000000	200.000000	7	30	mm	200.000000	335	671
Frame#	Time	CLAV			STRN			RASI			LASI			RTH1			RTH2			RTH3			RTB1			RTB2			RTB3			RD5M			RTOE			LTH1			LTH2			LTB1			LTB2			LTB3			LTOE			LD5M			LTH3			RHEE			RPSI			T10			PE03			PE02			PE01			C7			LPSI			LHEE			RBAK			
		X1	Y1	Z1	X2	Y2	Z2	X3	Y3	Z3	X4	Y4	Z4	X5	Y5	Z5	X6	Y6	Z6	X7	Y7	Z7	X8	Y8	Z8	X9	Y9	Z9	X10	Y10	Z10	X11	Y11	Z11	X12	Y12	Z12	X13	Y13	Z13	X14	Y14	Z14	X15	Y15	Z15	X16	Y16	Z16	X17	Y17	Z17	X18	Y18	Z18	X19	Y19	Z19	X20	Y20	Z20	X21	Y21	Z21	X22	Y22	Z22	X23	Y23	Z23	X24	Y24	Z24	X25	Y25	Z25	X26	Y26	Z26	X27	Y27	Z27	X28	Y28	Z28	X29	Y29	Z29	X30	Y30	Z30	

336	1.675	899.1570434570317	1435.456665039063	233.5675354003907	954.7128295898442	1243.728515625	240.2704010009767	941.4591674804692	1046.838256835938	388.1246643066409	934.9478149414067	1007.962524414063	112.933219909668	918.8635253906255	787.0754394531255	431.9400939941409	863.057006835938	759.1378173828127	433.882019042969	884.7380981445317	716.6870117187502	417.2600402832034	907.1105957031255	373.5958251953126	366.7151794433595	867.8794555664067	326.5154724121095	369.8146972656251	903.811157226563	295.485321044922	354.2901000976564	984.4387817382817	16.59798622131348	346.4731750488282	1042.34228515625	32.68222808837892	299.399871826172	874.508666992188	694.161560058594	106.8759231567383	861.9478149414067	654.5930175781252	134.8526000976563	815.7509155273442	417.3769836425784	125.2627410888672	768.768920898438	411.449157714844	141.1112213134766	773.463745117188	350.3828735351564	129.0136413574219	647.688659667969	74.06885528564456	179.5805206298829	611.1486816406252	95.59650421142581	142.4636993408204	909.7084960937505	623.4699707031252	110.9272460937501	824.862915039063	27.49229431152345	268.6376953125001	772.3502807617192	1081.27099609375	307.3447875976564	728.2745361328127	1265.99267578125	230.6993560791017	761.3840942382815	1058.456665039063	235.5244293212892	766.3189086914065	1065.512084960938	286.0574951171876	776.430786132813	1121.295532226563	250.822235107422	784.5032348632817	1528.044067382813	222.3149261474611	766.708679199219	1068.239990234375	208.2826385498048	539.7888793945315	243.0799102783204	203.6577148437501	764.5567626953127	1439.540771484375	394.9454040527346	
337	1.68	905.235473632813	1435.969848632813	233.5014495849611	960.6145019531255	1244.177001953125	240.3692626953126	946.9191284179692	1046.823852539063	388.6845397949221	940.8563842773442	1008.908630371094	113.380470275879	923.2269897460942	786.8646850585942	431.8338317871096	867.221557617188	759.2371826171877	433.7793579101565	888.7453002929692	716.686706542969	417.1630859375002	909.093383789063	373.5633239746095	366.3856201171876	869.5888061523442	326.7101135253907	369.5221557617189	905.3519897460942	295.4690246582032	353.9557495117189	984.457153320313	16.62616539001466	346.4768371582032	1042.528564453125	32.58701705932619	299.3953247070314	883.256225585938	695.0433349609377	106.8436126708985	871.2412719726567	655.225036621094	134.7044067382813	828.224731445313	418.2382812500002	125.4937362670899	781.3705444335942	411.6940002441409	141.4617156982422	786.6871948242192	350.7678222656251	128.8989257812501	665.9974365234377	73.50737762451175	178.5781402587891	629.0238037109377	94.56159973144534	141.5900268554688	919.437866210938	624.843933105469	110.7312545776368	824.9292602539067	27.66452789306642	268.4711914062501	778.0344238281255	1081.720092773438	307.3947753906251	734.1940917968752	1266.605712890625	231.2312774658204	767.143737792969	1059.14697265625	235.4979095458986	772.052368164063	1066.02001953125	286.0763549804689	782.2474975585942	1121.905151367188	251.0259094238282	790.6264038085942	1528.64794921875	222.3419342041017	772.5270996093755	1069.0146484375	208.2846527099611	554.0295410156252	239.8720245361329	203.7866363525392	770.9685668945317	1440.305297851563	395.2306213378909	
338	1.685	911.2998657226567	1436.4609375	233.4439849853517	966.5002441406255	1244.608154296875	240.486785888672	952.332641601563	1046.802001953125	389.2669067382815	946.7789916992192	1009.843994140625	113.869255065918	927.5858764648442	786.642944335938	431.7331542968752	871.3903808593755	759.320007324219	433.6529846191409	892.7551879882817	716.6716308593752	417.0531311035159	911.1111450195317	373.5181884765626	366.0515747070314	871.3206176757817	326.9024353027345	369.2069396972657	906.9140014648442	295.4430541992189	353.613739013672	984.4773559570317	16.6562671661377	346.4764709472657	1042.714721679688	32.49348068237306	299.3955993652345	892.0529174804692	695.9744873046877	106.7503967285157	880.524291992188	655.8972778320315	134.4436798095704	840.6469726562505	418.9646301269534	125.660499572754	793.9266967773442	411.7666625976565	141.7309875488282	799.9453735351567	350.9830322265626	128.7894287109376	684.5408325195315	72.7857360839844	177.7265319824219	647.147888183594	93.28761291503909	140.8210449218751	929.1804809570317	626.2730102539065	110.4953536987305	824.9992675781255	27.84724998474123	268.2945861816407	783.6882934570317	1082.136474609375	307.3944091796876	740.1015625000002	1267.200561523438	231.7532653808595	772.8859863281255	1059.818237304688	235.4171142578126	777.7592773437505	1066.499755859375	286.0426635742189	788.0440063476567	1122.491821289063	251.1900177001954	796.7372436523442	1529.228149414063	222.3704071044923	778.331909179688	1069.774047851563	208.2334899902345	568.4480590820315	236.3278808593751	203.812713623047	777.3612670898442	1441.052856445313	395.514343261719	
339	1.69	917.351440429688	1436.929321289063	233.3951263427736	972.3715209960942	1245.021118164063	240.6221618652345	957.7056274414067	1046.770263671875	389.8655395507815	952.7124633789067	1010.765991210938	114.393051147461	931.9358520507817	786.4093627929692	431.6375427246096	875.5612792968755	759.3850097656252	433.5035705566409	896.7645874023442	716.640563964844	416.9296875000002	913.162231445313	373.4600830078126	365.7111206054689	873.0756835937505	327.0909118652345	368.870330810547	908.497192382813	295.4071044921876	353.2625122070314	984.4996948242192	16.68845748901368	346.4709777832032	1042.90087890625	32.40181732177736	299.3988342285157	900.8942871093755	696.9556274414065	106.5897445678712	889.7938842773442	656.6106567382815	134.0665283203126	853.026489257813	419.5476379394534	125.7566452026368	806.4458007812505	411.6633605957034	141.9102020263672	813.2440795898442	351.0250244140626	128.6849975585938	703.3077392578127	71.91004943847659	177.0148620605469	665.506530761719	91.78643035888675	140.1526031494141	938.9321899414067	627.7561645507815	110.2156524658204	825.0726928710942	28.03954315185548	268.1094360351564	789.3150024414067	1082.519287109375	307.3482666015626	745.9984130859377	1267.776489257813	232.2632598876954	778.611694335938	1060.467651367188	235.2873535156251	783.4408569335942	1066.950073242188	285.9608764648439	793.8218383789067	1123.053100585938	251.3177642822267	802.8371582031255	1529.78369140625	222.400115966797	784.1234741210942	1070.514038085938	208.1345062255861	583.0543212890627	232.4595947265626	203.7505950927736	783.7349243164067	1441.782470703125	395.7953186035159	
340	1.695	923.3914184570317	1437.374267578125	233.354705810547	978.2297363281255	1245.4150390625	240.7742919921876	963.0441284179692	1046.7255859375	390.4739685058596	958.6532592773442	1011.671752929688	114.9448623657227	936.2731933593755	786.1629028320317	431.5458068847659	879.732543945313	759.4309692382815	433.3324890136721	900.771362304688	716.5925903320315	416.792175292969	915.2440795898442	373.3890686035157	365.3622436523439	874.854370117188	327.2741088867189	368.513885498047	910.1007690429692	295.3613281250001	352.9005432128907	984.5244750976567	16.72296714782716	346.4595031738282	1043.08642578125	32.31234741210939	299.4032287597657	909.7744750976567	697.986267089844	106.3559265136719	899.0465698242192	657.3647460937502	133.5704040527344	865.372192382813	419.9803466796877	125.7776641845704	818.9362792968755	411.3814697265627	141.9923706054688	826.5888671875005	350.8921813964845	128.5852813720704	722.2883911132815	70.88826751708987	176.430404663086	684.0872192382815	90.07167816162112	139.5788116455079	948.688354492188	629.2910156250002	109.8898468017579	825.149536132813	28.24022102355958	267.917449951172	794.9179077148442	1082.86767578125	307.2611694335939	751.8862304687502	1268.332763671875	232.7593688964845	784.3220214843755	1061.092041015625	235.1142425537111	789.0988769531255	1067.36962890625	285.8359375000001	799.5825805664067	1123.586547851563	251.4125823974611	808.9273071289067	1530.31396484375	222.4308319091798	789.9023437500005	1071.231079101563	207.993377685547	597.8581542968752	228.2802886962892	203.6161193847657	790.0897827148442	1442.492919921875	396.0723876953127	
341	1.7	929.4208984375005	1437.795166015625	233.3224487304689	984.0764160156255	1245.78857421875	240.9418182373048	968.3544311523442	1046.665283203125	391.0855102539065	964.5979003906255	1012.558532714844	115.5173416137696	940.5949096679692	785.9026489257817	431.4562988281252	883.902954101563	759.4566650390627	433.141784667969	904.774047851563	716.5266723632815	416.6400146484377	917.353637695313	373.3056030273439	365.0030517578126	876.6564331054692	327.4508666992189	368.1396789550782	911.7236328125005	295.3060302734376	352.5265502929689	984.5518188476567	16.76006507873536	346.4414062500001	1043.270751953125	32.22548675537111	299.4071655273439	918.6860351562505	699.0643310546877	106.0444335937501	908.2785644531255	658.1582641601565	132.9543914794922	877.6924438476567	420.2574462890627	125.721061706543	831.4064331054692	410.9196777343752	141.9726715087891	839.9843750000005	350.5847473144532	128.4898376464844	741.4739379882815	69.7303161621094	175.9589538574219	702.8790283203127	88.15871429443362	139.0921478271485	958.443969726563	630.8740234375002	109.5172958374024	825.229614257813	28.4479160308838	267.720428466797	800.500366210938	1083.181274414063	307.1382141113282	757.7663574218752	1268.868530273438	233.2399749755861	790.0181274414067	1061.68896484375	234.9035644531251	794.7349243164067	1067.757080078125	285.6729431152345	805.328002929688	1124.089965820313	251.4779815673829	815.008911132813	1530.818237304688	222.4622497558595	795.6689453125005	1071.921630859375	207.8158569335939	612.8690185546877	223.8040771484376	203.4254302978517	796.4260253906255	1443.182739257813	396.3444519042971	
342	1.705	935.4411010742192	1438.19091796875	233.2979278564454	989.912963867188	1246.140747070313	241.1231689453126	973.642456054688	1046.586181640625	391.693542480469	970.5429687500005	1013.423461914063	116.1029739379883	944.8991699218755	785.6276855468755	431.3668518066409	888.0715332031255	759.4613037109377	432.9338073730471	908.7716674804692	716.441833496094	416.472595214844	919.4870605468755	373.2103881835939	364.6319885253907	878.480834960938	327.6202697753907	367.7500000000001	913.3639526367192	295.2419738769532	352.1396789550782	984.581665039063	16.80000877380372	346.416229248047	1043.452880859375	32.14170455932619	299.4092712402345	927.6207885742192	700.186462402344	105.6523208618165	917.4858398437505	658.988952636719	132.2195281982422	889.9946899414067	420.3753967285159	125.5863952636719	843.863403320313	410.2779235839846	141.8485565185547	853.4340209960942	350.1047668457032	128.398178100586	760.8569335937502	68.44810485839847	175.5850830078126	721.872985839844	86.06448364257815	138.6835327148438	968.193237304688	632.5008544921877	109.0990905761719	825.3129882812505	28.66118812561037	267.5201721191407	806.065795898438	1083.459594726563	306.9844665527345	763.6402587890627	1269.382934570313	233.7035980224611	795.7014160156255	1062.255737304688	234.6611175537111	800.351196289063	1068.111938476563	285.4770507812501	811.0598144531255	1124.5615234375	251.5174713134767	821.0831909179692	1531.295532226563	222.494110107422	801.4240722656255	1072.582641601563	207.6076812744142	628.095886230469	219.0459442138673	203.1943511962892	802.7439575195317	1443.8505859375	396.6104736328127	
